<?xml version="1.0" encoding="UTF-8" standalone="no"?><svg xmlns="http://www.w3.org/2000/svg" xmlns:xlink="http://www.w3.org/1999/xlink" contentStyleType="text/css" height="499px" preserveAspectRatio="none" style="width:617px;height:499px;background:#FFFFFF;" version="1.1" viewBox="0 0 617 499" width="617px" zoomAndPan="magnify"><defs/><g><rect height="26.2969" id="_title" style="stroke:#00000000;stroke-width:1.0;fill:none;" width="141" x="239.75" y="10"/><text fill="#000000" font-family="Verdana" font-size="14" font-weight="bold" lengthAdjust="spacing" textLength="131" x="244.75" y="27.9951">RDCU pour jouer</text><rect height="52.2656" style="stroke:#000000;stroke-width:1.5;fill:none;" width="570" x="41.5" y="352.8203"/><line style="stroke:#181818;stroke-width:0.5;fill:none;stroke-dasharray:5.0,5.0;" x1="94.5" x2="94.5" y1="89.8906" y2="492.3516"/><line style="stroke:#181818;stroke-width:0.5;fill:none;stroke-dasharray:5.0,5.0;" x1="235" x2="235" y1="89.8906" y2="492.3516"/><line style="stroke:#181818;stroke-width:0.5;fill:none;stroke-dasharray:5.0,5.0;" x1="352" x2="352" y1="89.8906" y2="492.3516"/><line style="stroke:#181818;stroke-width:0.5;fill:none;stroke-dasharray:5.0,5.0;" x1="419" x2="419" y1="89.8906" y2="492.3516"/><line style="stroke:#181818;stroke-width:0.5;fill:none;stroke-dasharray:5.0,5.0;" x1="490" x2="490" y1="89.8906" y2="492.3516"/><rect fill="#E2E2F0" height="30.2969" rx="2.5" ry="2.5" style="stroke:#181818;stroke-width:0.5;" width="87" x="51.5" y="58.5938"/><text fill="#000000" font-family="Verdana" font-size="14" lengthAdjust="spacing" textLength="73" x="58.5" y="78.5889">:JeuDeDes</text><rect fill="#E2E2F0" height="46.5938" rx="2.5" ry="2.5" style="stroke:#181818;stroke-width:0.5;" width="158" x="156" y="42.2969"/><text fill="#000000" font-family="Verdana" font-size="14" lengthAdjust="spacing" textLength="56" x="207" y="62.292">joueurs:</text><text fill="#000000" font-family="Verdana" font-size="14" lengthAdjust="spacing" textLength="144" x="163" y="78.5889">Map&lt;String,Joueur&gt;</text><rect fill="#E2E2F0" height="30.2969" rx="2.5" ry="2.5" style="stroke:#181818;stroke-width:0.5;" width="57" x="324" y="58.5938"/><text fill="#000000" font-family="Verdana" font-size="14" lengthAdjust="spacing" textLength="43" x="331" y="78.5889">d1:De</text><rect fill="#E2E2F0" height="30.2969" rx="2.5" ry="2.5" style="stroke:#181818;stroke-width:0.5;" width="56" x="391" y="58.5938"/><text fill="#000000" font-family="Verdana" font-size="14" lengthAdjust="spacing" textLength="42" x="398" y="78.5889">d2:De</text><rect fill="#E2E2F0" height="30.2969" rx="2.5" ry="2.5" style="stroke:#181818;stroke-width:0.5;" width="67" x="457" y="58.5938"/><text fill="#000000" font-family="Verdana" font-size="14" lengthAdjust="spacing" textLength="53" x="464" y="78.5889">j:Joueur</text><polygon fill="#181818" points="83,120.0234,93,124.0234,83,128.0234" style="stroke:#181818;stroke-width:1.0;"/><line style="stroke:#181818;stroke-width:1.0;" x1="0" x2="89" y1="124.0234" y2="124.0234"/><text fill="#000000" font-family="Verdana" font-size="13" lengthAdjust="spacing" textLength="71" x="7" y="118.9575">jouer(nom)</text><path d="M100,104.8906 L100,129.8906 L226,129.8906 L226,114.8906 L216,104.8906 L100,104.8906 " fill="#FEFFDD" style="stroke:#181818;stroke-width:0.5;"/><path d="M216,104.8906 L216,114.8906 L226,114.8906 L216,104.8906 " fill="#FEFFDD" style="stroke:#181818;stroke-width:0.5;"/><text fill="#000000" font-family="Verdana" font-size="13" lengthAdjust="spacing" textLength="105" x="106" y="121.9575">selon Contrôleur</text><polygon fill="#181818" points="223,155.1563,233,159.1563,223,163.1563" style="stroke:#181818;stroke-width:1.0;"/><line style="stroke:#181818;stroke-width:1.0;" x1="95" x2="229" y1="159.1563" y2="159.1563"/><text fill="#000000" font-family="Verdana" font-size="13" lengthAdjust="spacing" textLength="116" x="102" y="154.0903">j = chercher(nom)</text><path d="M240,140.0234 L240,165.0234 L459,165.0234 L459,150.0234 L449,140.0234 L240,140.0234 " fill="#FEFFDD" style="stroke:#181818;stroke-width:0.5;"/><path d="M449,140.0234 L449,150.0234 L459,150.0234 L449,140.0234 " fill="#FEFFDD" style="stroke:#181818;stroke-width:0.5;"/><text fill="#000000" font-family="Verdana" font-size="13" lengthAdjust="spacing" textLength="198" x="246" y="157.0903">selon Transformer ID en objets</text><polygon fill="#181818" points="340.5,190.2891,350.5,194.2891,340.5,198.2891" style="stroke:#181818;stroke-width:1.0;"/><line style="stroke:#181818;stroke-width:1.0;" x1="95" x2="346.5" y1="194.2891" y2="194.2891"/><text fill="#000000" font-family="Verdana" font-size="13" lengthAdjust="spacing" textLength="58" x="102" y="189.2231">brasser()</text><path d="M357,175.1563 L357,200.1563 L458,200.1563 L458,185.1563 L448,175.1563 L357,175.1563 " fill="#FEFFDD" style="stroke:#181818;stroke-width:0.5;"/><path d="M448,175.1563 L448,185.1563 L458,185.1563 L448,175.1563 " fill="#FEFFDD" style="stroke:#181818;stroke-width:0.5;"/><text fill="#000000" font-family="Verdana" font-size="13" lengthAdjust="spacing" textLength="80" x="363" y="192.2231">selon Expert</text><polygon fill="#181818" points="340.5,225.4219,350.5,229.4219,340.5,233.4219" style="stroke:#181818;stroke-width:1.0;"/><line style="stroke:#181818;stroke-width:1.0;" x1="95" x2="346.5" y1="229.4219" y2="229.4219"/><text fill="#000000" font-family="Verdana" font-size="13" lengthAdjust="spacing" textLength="74" x="102" y="224.356">v1 = valeur</text><path d="M357,210.2891 L357,235.2891 L458,235.2891 L458,220.2891 L448,210.2891 L357,210.2891 " fill="#FEFFDD" style="stroke:#181818;stroke-width:0.5;"/><path d="M448,210.2891 L448,220.2891 L458,220.2891 L448,210.2891 " fill="#FEFFDD" style="stroke:#181818;stroke-width:0.5;"/><text fill="#000000" font-family="Verdana" font-size="13" lengthAdjust="spacing" textLength="80" x="363" y="227.356">selon Expert</text><polygon fill="#181818" points="407,260.5547,417,264.5547,407,268.5547" style="stroke:#181818;stroke-width:1.0;"/><line style="stroke:#181818;stroke-width:1.0;" x1="95" x2="413" y1="264.5547" y2="264.5547"/><text fill="#000000" font-family="Verdana" font-size="13" lengthAdjust="spacing" textLength="58" x="102" y="259.4888">brasser()</text><path d="M424,245.4219 L424,270.4219 L525,270.4219 L525,255.4219 L515,245.4219 L424,245.4219 " fill="#FEFFDD" style="stroke:#181818;stroke-width:0.5;"/><path d="M515,245.4219 L515,255.4219 L525,255.4219 L515,245.4219 " fill="#FEFFDD" style="stroke:#181818;stroke-width:0.5;"/><text fill="#000000" font-family="Verdana" font-size="13" lengthAdjust="spacing" textLength="80" x="430" y="262.4888">selon Expert</text><polygon fill="#181818" points="407,295.6875,417,299.6875,407,303.6875" style="stroke:#181818;stroke-width:1.0;"/><line style="stroke:#181818;stroke-width:1.0;" x1="95" x2="413" y1="299.6875" y2="299.6875"/><text fill="#000000" font-family="Verdana" font-size="13" lengthAdjust="spacing" textLength="74" x="102" y="294.6216">v2 = valeur</text><path d="M424,280.5547 L424,305.5547 L525,305.5547 L525,290.5547 L515,280.5547 L424,280.5547 " fill="#FEFFDD" style="stroke:#181818;stroke-width:0.5;"/><path d="M515,280.5547 L515,290.5547 L525,290.5547 L515,280.5547 " fill="#FEFFDD" style="stroke:#181818;stroke-width:0.5;"/><text fill="#000000" font-family="Verdana" font-size="13" lengthAdjust="spacing" textLength="80" x="430" y="297.6216">selon Expert</text><polygon fill="#181818" points="478.5,330.8203,488.5,334.8203,478.5,338.8203" style="stroke:#181818;stroke-width:1.0;"/><line style="stroke:#181818;stroke-width:1.0;" x1="95" x2="484.5" y1="334.8203" y2="334.8203"/><text fill="#000000" font-family="Verdana" font-size="13" lengthAdjust="spacing" textLength="89" x="102" y="329.7544">incNbParties()</text><path d="M495,315.6875 L495,340.6875 L596,340.6875 L596,325.6875 L586,315.6875 L495,315.6875 " fill="#FEFFDD" style="stroke:#181818;stroke-width:0.5;"/><path d="M586,315.6875 L586,325.6875 L596,325.6875 L586,315.6875 " fill="#FEFFDD" style="stroke:#181818;stroke-width:0.5;"/><text fill="#000000" font-family="Verdana" font-size="13" lengthAdjust="spacing" textLength="80" x="501" y="332.7544">selon Expert</text><path d="M41.5,352.8203 L113.5,352.8203 L113.5,359.9531 L103.5,369.9531 L41.5,369.9531 L41.5,352.8203 " fill="#EEEEEE" style="stroke:#000000;stroke-width:1.5;"/><rect fill="none" height="52.2656" style="stroke:#000000;stroke-width:1.5;" width="570" x="41.5" y="352.8203"/><text fill="#000000" font-family="Verdana" font-size="13" font-weight="bold" lengthAdjust="spacing" textLength="27" x="56.5" y="365.8872">opt</text><text fill="#000000" font-family="Verdana" font-size="11" font-weight="bold" lengthAdjust="spacing" textLength="91" x="128.5" y="365.0308">[v1 + v2 == 7]</text><polygon fill="#181818" points="478.5,390.0859,488.5,394.0859,478.5,398.0859" style="stroke:#181818;stroke-width:1.0;"/><line style="stroke:#181818;stroke-width:1.0;" x1="95" x2="484.5" y1="394.0859" y2="394.0859"/><text fill="#000000" font-family="Verdana" font-size="13" lengthAdjust="spacing" textLength="146" x="102" y="389.02">incNbPartiesGagnees()</text><path d="M495,374.9531 L495,399.9531 L596,399.9531 L596,384.9531 L586,374.9531 L495,374.9531 " fill="#FEFFDD" style="stroke:#181818;stroke-width:0.5;"/><path d="M586,374.9531 L586,384.9531 L596,384.9531 L586,374.9531 " fill="#FEFFDD" style="stroke:#181818;stroke-width:0.5;"/><text fill="#000000" font-family="Verdana" font-size="13" lengthAdjust="spacing" textLength="80" x="501" y="392.02">selon Expert</text><polygon fill="#181818" points="478.5,432.2188,488.5,436.2188,478.5,440.2188" style="stroke:#181818;stroke-width:1.0;"/><line style="stroke:#181818;stroke-width:1.0;" x1="95" x2="484.5" y1="436.2188" y2="436.2188"/><text fill="#000000" font-family="Verdana" font-size="13" lengthAdjust="spacing" textLength="86" x="102" y="431.1528">p = nbParties</text><path d="M495,417.0859 L495,442.0859 L596,442.0859 L596,427.0859 L586,417.0859 L495,417.0859 " fill="#FEFFDD" style="stroke:#181818;stroke-width:0.5;"/><path d="M586,417.0859 L586,427.0859 L596,427.0859 L586,417.0859 " fill="#FEFFDD" style="stroke:#181818;stroke-width:0.5;"/><text fill="#000000" font-family="Verdana" font-size="13" lengthAdjust="spacing" textLength="80" x="501" y="434.1528">selon Expert</text><polygon fill="#181818" points="478.5,467.3516,488.5,471.3516,478.5,475.3516" style="stroke:#181818;stroke-width:1.0;"/><line style="stroke:#181818;stroke-width:1.0;" x1="95" x2="484.5" y1="471.3516" y2="471.3516"/><text fill="#000000" font-family="Verdana" font-size="13" lengthAdjust="spacing" textLength="143" x="102" y="466.2856">g = nbPartiesGagnees</text><path d="M495,452.2188 L495,477.2188 L596,477.2188 L596,462.2188 L586,452.2188 L495,452.2188 " fill="#FEFFDD" style="stroke:#181818;stroke-width:0.5;"/><path d="M586,452.2188 L586,462.2188 L596,462.2188 L586,452.2188 " fill="#FEFFDD" style="stroke:#181818;stroke-width:0.5;"/><text fill="#000000" font-family="Verdana" font-size="13" lengthAdjust="spacing" textLength="80" x="501" y="469.2856">selon Expert</text><!--MD5=[d3dc8d18ac3507d3ab3a6b71d096899b]
@startuml
skinparam style strictuml
skinparam defaultfontname Verdana
title RDCU pour jouer
participant ":JeuDeDes" as c
participant "joueurs:\nMap<String,Joueur>" as jm
participant "d1:De" as d1
participant "d2:De" as d2
participant "j:Joueur" as j
->c : jouer(nom)
note right : selon Contrôleur
c->jm : j = chercher(nom)
note right : selon Transformer ID en objets
c->d1 : brasser()
note right : selon Expert
c->d1 : v1 = valeur
note right : selon Expert
c->d2 : brasser()
note right : selon Expert
c->d2 : v2 = valeur
note right : selon Expert
c->j : incNbParties()
note right : selon Expert
opt v1 + v2 == 7
  c->j : incNbPartiesGagnees()
  note right : selon Expert
end opt
c->j : p = nbParties
note right : selon Expert
c->j : g = nbPartiesGagnees
note right : selon Expert
@enduml

PlantUML version 1.2022.7beta2(Unknown compile time)
(GPL source distribution)
Java Runtime: Java(TM) SE Runtime Environment
JVM: Java HotSpot(TM) 64-Bit Server VM
Default Encoding: UTF-8
Language: en
Country: US
--></g></svg>