<?xml version="1.0" encoding="UTF-8" standalone="no"?><svg xmlns="http://www.w3.org/2000/svg" xmlns:xlink="http://www.w3.org/1999/xlink" contentStyleType="text/css" height="252px" preserveAspectRatio="none" style="width:537px;height:252px;background:#FFFFFF;" version="1.1" viewBox="0 0 537 252" width="537px" zoomAndPan="magnify"><defs/><g><rect height="26.2969" id="_title" style="stroke:#00000000;stroke-width:1.0;fill:none;" width="198" x="170.5" y="10"/><text fill="#000000" font-family="Verdana" font-size="14" font-weight="bold" lengthAdjust="spacing" textLength="188" x="175.5" y="27.9951">RDCU pour démarrerJeu</text><line style="stroke:#181818;stroke-width:0.5;stroke-dasharray:5.0,5.0;" x1="142.5" x2="142.5" y1="89.8906" y2="245.5547"/><line style="stroke:#181818;stroke-width:0.5;stroke-dasharray:5.0,5.0;" x1="301" x2="301" y1="185.2891" y2="245.5547"/><line style="stroke:#181818;stroke-width:0.5;stroke-dasharray:5.0,5.0;" x1="424" x2="424" y1="89.8906" y2="245.5547"/><rect fill="#E2E2F0" height="30.2969" rx="2.5" ry="2.5" style="stroke:#181818;stroke-width:0.5;" width="87" x="99.5" y="58.5938"/><text fill="#000000" font-family="Verdana" font-size="14" lengthAdjust="spacing" textLength="73" x="106.5" y="78.5889">:JeuDeDes</text><rect fill="#E2E2F0" height="46.5938" rx="2.5" ry="2.5" style="stroke:#181818;stroke-width:0.5;" width="158" x="345" y="42.2969"/><text fill="#000000" font-family="Verdana" font-size="14" lengthAdjust="spacing" textLength="56" x="396" y="62.292">joueurs:</text><text fill="#000000" font-family="Verdana" font-size="14" lengthAdjust="spacing" textLength="144" x="352" y="78.5889">Map&lt;String,Joueur&gt;</text><polygon fill="#181818" points="131,127.5898,141,131.5898,131,135.5898" style="stroke:#181818;stroke-width:1.0;"/><line style="stroke:#181818;stroke-width:1.0;" x1="0" x2="137" y1="131.5898" y2="131.5898"/><text fill="#000000" font-family="Verdana" font-size="13" lengthAdjust="spacing" textLength="119" x="7" y="126.5239">demarrerJeu(nom)</text><path d="M148,104.8906 L148,144.8906 L405,144.8906 L405,114.8906 L395,104.8906 L148,104.8906 " fill="#FEFFDD" style="stroke:#181818;stroke-width:0.5;"/><path d="M395,104.8906 L395,114.8906 L405,114.8906 L395,104.8906 " fill="#FEFFDD" style="stroke:#181818;stroke-width:0.5;"/><text fill="#000000" font-family="Verdana" font-size="13" lengthAdjust="spacing" textLength="105" x="154" y="121.9575">selon Contrôleur</text><text fill="#000000" font-family="Verdana" font-size="13" lengthAdjust="spacing" textLength="236" x="154" y="137.0903">(JeuDeDés est l'objet racine du MDD)</text><polygon fill="#181818" points="256,167.2891,266,171.2891,256,175.2891" style="stroke:#181818;stroke-width:1.0;"/><line style="stroke:#181818;stroke-width:1.0;stroke-dasharray:2.0,2.0;" x1="143" x2="262" y1="171.2891" y2="171.2891"/><text fill="#000000" font-family="Verdana" font-size="13" lengthAdjust="spacing" textLength="101" x="150" y="166.2231">j = create(nom)</text><rect fill="#E2E2F0" height="30.2969" rx="2.5" ry="2.5" style="stroke:#181818;stroke-width:0.5;" width="67" x="268" y="154.6406"/><text fill="#000000" font-family="Verdana" font-size="14" lengthAdjust="spacing" textLength="53" x="275" y="174.6357">j:Joueur</text><path d="M339.5,155.1563 L339.5,195.1563 L527.5,195.1563 L527.5,165.1563 L517.5,155.1563 L339.5,155.1563 " fill="#FEFFDD" style="stroke:#181818;stroke-width:0.5;"/><path d="M517.5,155.1563 L517.5,165.1563 L527.5,165.1563 L517.5,155.1563 " fill="#FEFFDD" style="stroke:#181818;stroke-width:0.5;"/><text fill="#000000" font-family="Verdana" font-size="13" lengthAdjust="spacing" textLength="94" x="345.5" y="172.2231">selon Créateur</text><text fill="#000000" font-family="Verdana" font-size="13" lengthAdjust="spacing" textLength="68" x="345.5" y="187.356">(JeuDeDes</text><text fill="#000000" font-family="Verdana" font-size="13" font-style="italic" lengthAdjust="spacing" textLength="45" x="417.5" y="187.356">agrège</text><text fill="#000000" font-family="Verdana" font-size="13" lengthAdjust="spacing" textLength="46" x="466.5" y="187.356">Joueur)</text><polygon fill="#181818" points="412,220.5547,422,224.5547,412,228.5547" style="stroke:#181818;stroke-width:1.0;"/><line style="stroke:#181818;stroke-width:1.0;" x1="143" x2="418" y1="224.5547" y2="224.5547"/><text fill="#000000" font-family="Verdana" font-size="13" lengthAdjust="spacing" textLength="37" x="150" y="219.4888">add(j)</text><path d="M429,205.4219 L429,230.4219 L530,230.4219 L530,215.4219 L520,205.4219 L429,205.4219 " fill="#FEFFDD" style="stroke:#181818;stroke-width:0.5;"/><path d="M520,205.4219 L520,215.4219 L530,215.4219 L520,205.4219 " fill="#FEFFDD" style="stroke:#181818;stroke-width:0.5;"/><text fill="#000000" font-family="Verdana" font-size="13" lengthAdjust="spacing" textLength="80" x="435" y="222.4888">selon Expert</text><!--MD5=[674c99215a1cade1085416e21e6ce259]
@startuml
skinparam style strictuml
skinparam defaultfontname Verdana
title RDCU pour démarrerJeu
participant ":JeuDeDes" as c
->c : demarrerJeu(nom)
note right : selon Contrôleur\n(JeuDeDés est l'objet racine du MDD)
participant "j:Joueur" as j
create j
participant "joueurs:\nMap<String,Joueur>" as jm
c- ->j : j = create(nom)
note right : selon Créateur\n(JeuDeDes //agrège// Joueur)
c -> jm : add(j)
note right : selon Expert
@enduml

PlantUML version 1.2022.7beta2(Unknown compile time)
(GPL source distribution)
Java Runtime: Java(TM) SE Runtime Environment
JVM: Java HotSpot(TM) 64-Bit Server VM
Default Encoding: UTF-8
Language: en
Country: US
--></g></svg>