<?xml version="1.0" encoding="UTF-8" standalone="no"?><svg xmlns="http://www.w3.org/2000/svg" xmlns:xlink="http://www.w3.org/1999/xlink" contentStyleType="text/css" height="333px" preserveAspectRatio="none" style="width:615px;height:333px;background:#FFFFFF;" version="1.1" viewBox="0 0 615 333" width="615px" zoomAndPan="magnify"><defs><filter height="1" id="b4obgfpgsqrt50" width="1" x="0" y="0"><feFlood flood-color="#ADD8E6" result="flood"/><feComposite in="SourceGraphic" in2="flood" operator="over"/></filter></defs><g><rect height="75.1875" id="_title" style="stroke:#00000000;stroke-width:1.0;fill:none;" width="305" x="148.25" y="5"/><text fill="#000000" font-family="&quot;Segoe UI Black&quot;" font-size="14" font-weight="bold" lengthAdjust="spacing" textLength="107" x="247.25" y="22.9951">États du TDD</text><text fill="#000000" font-family="&quot;Segoe UI Black&quot;" font-size="14" font-weight="bold" lengthAdjust="spacing" textLength="295" x="153.25" y="39.292">(Développement piloté par les tests,</text><text fill="#000000" font-family="&quot;Segoe UI Black&quot;" font-size="14" font-weight="bold" lengthAdjust="spacing" textLength="279" x="161.25" y="55.5889">anglais: Test-driven development)</text><text fill="#000000" font-family="&quot;Segoe UI Black&quot;" font-size="14" font-weight="bold" lengthAdjust="spacing" textLength="5" x="298.25" y="71.8857"> </text><rect fill="#FF0000" height="65.875" rx="12.5" ry="12.5" style="stroke:#000000;stroke-width:0.5;" width="94" x="132" y="120.4609"/><text fill="#FFFFFF" font-family="&quot;Segoe UI Black&quot;" font-size="16" font-weight="bold" lengthAdjust="spacing" textLength="84" x="137" y="140.3125">Au moins</text><text fill="#FFFFFF" font-family="&quot;Segoe UI Black&quot;" font-size="16" font-weight="bold" lengthAdjust="spacing" textLength="67" x="145.5" y="158.9375">un test</text><text fill="#FFFFFF" font-family="&quot;Segoe UI Black&quot;" font-size="16" font-weight="bold" lengthAdjust="spacing" textLength="66" x="146" y="177.5625">échoue</text><rect fill="#008000" height="65.875" rx="12.5" ry="12.5" style="stroke:#000000;stroke-width:0.5;" width="91" x="371.5" y="120.4609"/><text fill="#FFFFFF" font-family="&quot;Segoe UI Black&quot;" font-size="16" font-weight="bold" lengthAdjust="spacing" textLength="46" x="394" y="140.3125">Tous</text><text fill="#FFFFFF" font-family="&quot;Segoe UI Black&quot;" font-size="16" font-weight="bold" lengthAdjust="spacing" textLength="81" x="376.5" y="158.9375">les tests</text><text fill="#FFFFFF" font-family="&quot;Segoe UI Black&quot;" font-size="16" font-weight="bold" lengthAdjust="spacing" textLength="73" x="380.5" y="177.5625">passent</text><rect fill="#FFFF00" height="60.625" rx="12.5" ry="12.5" style="stroke:#000000;stroke-width:0.5;" width="88" x="373" y="266.4609"/><text fill="#FF0000" font-family="&quot;Segoe UI Black&quot;" font-size="16" font-weight="bold" lengthAdjust="spacing" textLength="78" x="378" y="286.3125">Pas TDD</text><path d="M401,290.0859 L401,306.0859 L405,306.0859 L405,290.0859 L401,290.0859 M409,290.0859 L409,306.0859 C410.12,306.0859 411.12,306.4459 411.88,307.2059 C412.64,307.9659 416.48,315.6859 417,316.7259 C417.52,317.7659 418.56,318.2859 419.64,317.9659 C420.68,317.6459 421.24,316.5259 420.88,315.4459 C420.56,314.4059 419,309.0859 419,308.0859 C419,307.0859 419.88,306.0859 421,306.0859 L427,306.0859 C428.12,306.0859 429,305.2059 429,304.0859 C429,302.9659 424.88,291.3259 424.88,291.3259 C424.56,290.6059 423.84,290.0859 423,290.0859 L409,290.0859 " fill="#FF0000" style="stroke:;stroke-width:0.0;stroke-dasharray:;"/><ellipse cx="16" cy="153.4609" fill="#222222" rx="10" ry="10" style="stroke:none;stroke-width:1.0;"/><!--MD5=[1a59c7f6df8481c56a7ef6a685f090c4]
link *start to Rouge--><g id="link_*start_Rouge"><path d="M26.1964,153.4609 C45.926,153.4609 90.5487,153.4609 126.507,153.4609 " fill="none" id="*start-to-Rouge" style="stroke:#181818;stroke-width:1.0;"/><polygon fill="#181818" points="131.746,153.4609,122.746,149.4609,126.746,153.4609,122.746,157.4609,131.746,153.4609" style="stroke:#181818;stroke-width:1.0;"/><text fill="#000000" font-family="&quot;Segoe UI Black&quot;" font-size="16" lengthAdjust="spacing" textLength="43" x="57.5" y="109.3125">Créer</text><text fill="#000000" font-family="&quot;Segoe UI Black&quot;" font-size="16" lengthAdjust="spacing" textLength="69" x="44.5" y="127.9375">nouveau</text><text fill="#000000" font-family="&quot;Segoe UI Black&quot;" font-size="16" lengthAdjust="spacing" textLength="32" x="63" y="146.5625">test</text></g><!--MD5=[225968ad8b5d07bd11168a671cfc4882]
link Rouge to Vert--><g id="link_Rouge_Vert"><path d="M226.021,153.4609 C266.424,153.4609 324.559,153.4609 366.059,153.4609 " fill="none" id="Rouge-to-Vert" style="stroke:#181818;stroke-width:1.0;"/><polygon fill="#181818" points="371.289,153.4609,362.289,149.4609,366.289,153.4609,362.289,157.4609,371.289,153.4609" style="stroke:#181818;stroke-width:1.0;"/><text fill="#000000" font-family="&quot;Segoe UI Black&quot;" font-size="16" lengthAdjust="spacing" textLength="90" x="253.75" y="109.3125">Écrire code</text><text fill="#000000" font-family="&quot;Segoe UI Black&quot;" font-size="16" lengthAdjust="spacing" textLength="78" x="259.75" y="127.9375">pour faire</text><text fill="#000000" font-family="&quot;Segoe UI Black&quot;" font-size="16" lengthAdjust="spacing" textLength="109" x="244.25" y="146.5625">passer test(s)</text></g><!--MD5=[a457bc01392046f2809774e6aff8375f]
reverse link Rouge to Vert--><g id="link_Rouge_Vert"><path d="M207.566,190.7589 C222.243,206.8379 241.592,223.8949 263.25,232.4609 C277.922,238.2637 319.604,238.3294 334.25,232.4609 C357.481,223.1529 377.89,203.8689 392.627,186.6849 " fill="none" id="Rouge-backto-Vert" style="stroke:#181818;stroke-width:1.0;"/><polygon fill="#181818" points="203.937,186.6979,206.9527,196.0737,207.2692,190.4257,212.9172,190.7423,203.937,186.6979" style="stroke:#181818;stroke-width:1.0;"/><text fill="#000000" font-family="&quot;Segoe UI Black&quot;" font-size="16" lengthAdjust="spacing" textLength="5" x="296.25" y="172.3125"> </text><text fill="#000000" font-family="&quot;Segoe UI Black&quot;" font-size="16" lengthAdjust="spacing" textLength="43" x="277.25" y="190.9375">Créer</text><text fill="#000000" font-family="&quot;Segoe UI Black&quot;" font-size="16" lengthAdjust="spacing" textLength="69" x="264.25" y="209.5625">nouveau</text><text fill="#000000" font-family="&quot;Segoe UI Black&quot;" font-size="16" lengthAdjust="spacing" textLength="32" x="282.75" y="228.1875">test</text></g><!--MD5=[30e98dbec254e049169f7efa29786e02]
link Vert to Vert--><g id="link_Vert_Vert"><path d="M462.516,140.0799 C481.45,139.1569 497.5,143.6169 497.5,153.4609 C497.5,162.3819 484.318,166.8819 467.754,166.9599 " fill="none" id="Vert-to-Vert" style="stroke:#181818;stroke-width:1.0;"/><polygon fill="#181818" points="462.516,166.8419,471.4234,171.0441,467.5147,166.9548,471.604,163.0461,462.516,166.8419" style="stroke:#181818;stroke-width:1.0;"/><text fill="#000000" filter="url(#b4obgfpgsqrt50)" font-family="&quot;Segoe UI Black&quot;" font-size="16" lengthAdjust="spacing" textLength="99" x="503.5" y="159.3125">Refactoriser</text></g><!--MD5=[d28d1e13e76e2eeb62326f2a527a2c12]
link Vert to PasTDD--><g id="link_Vert_PasTDD"><path d="M417,186.5699 C417,208.8569 417,238.5234 417,261.3391 " fill="none" id="Vert-to-PasTDD" style="stroke:#181818;stroke-width:1.0;"/><polygon fill="#181818" points="417,266.3921,421,257.3921,417,261.3921,413,257.3921,417,266.3921" style="stroke:#181818;stroke-width:1.0;"/><text fill="#000000" font-family="&quot;Segoe UI Black&quot;" font-size="16" lengthAdjust="spacing" textLength="168" x="418" y="232.3125">Écrire code sans test</text></g><!--MD5=[91d986a3cd0f26e84695dd4dc052ffc9]
@startuml
hide empty description
skinparam style strictuml
skinparam StateBorderColor black
skinparam StateFontColor white
skinparam StateFontStyle bold
skinparam StateFontSize 16
skinparam StateArrowFontSize 16
skinparam DefaultFontName "Segoe UI Black"

title États du TDD\n(Développement piloté par les tests,\nanglais: Test-driven development)\n

state Rouge as "Au moins\nun test\néchoue" #red
state Vert as "Tous\nles tests\npassent" #green
state PasTDD as "<color red>Pas TDD\n<color red><size:48><&thumb-down></color>" #yellow
[*] -right-> Rouge : Créer\nnouveau\ntest
Rouge -r-> Vert : Écrire code\npour faire\npasser test(s)
Vert -l-> Rouge : \nCréer\nnouveau\ntest
Vert -> Vert : <back:lightblue>Refactoriser</back>
Vert - ->  PasTDD : Écrire code sans test
@enduml

PlantUML version 1.2022.7beta2(Unknown compile time)
(GPL source distribution)
Java Runtime: Java(TM) SE Runtime Environment
JVM: Java HotSpot(TM) 64-Bit Server VM
Default Encoding: UTF-8
Language: en
Country: US
--></g></svg>