<?xml version="1.0" encoding="UTF-8" standalone="no"?><svg xmlns="http://www.w3.org/2000/svg" xmlns:xlink="http://www.w3.org/1999/xlink" contentStyleType="text/css" height="916px" preserveAspectRatio="none" style="width:925px;height:916px;background:#FEFEFE;" version="1.1" viewBox="0 0 925 916" width="925px" zoomAndPan="magnify"><defs/><g><rect fill="#FEFEFE" height="26.2969" id="_title" style="stroke:#00000000;stroke-width:1.0;" width="266" x="328.25" y="15"/><text fill="#000000" font-family="sans-serif" font-size="14" font-weight="bold" lengthAdjust="spacing" textLength="256" x="333.25" y="32.9951">Évaluation de la démonstration</text><rect fill="#FAEBD7" height="854.4526" style="stroke:#FAEBD7;stroke-width:1.0;" width="256.5" x="15" y="50.042"/><ellipse cx="152" cy="85.9951" fill="#222222" rx="10" ry="10" style="stroke:#222222;stroke-width:1.0;"/><rect fill="#F1F1F1" height="47.9375" rx="12.5" ry="12.5" style="stroke:#181818;stroke-width:0.5;" width="195" x="54.5" y="293.2524"/><text fill="#000000" font-family="sans-serif" font-size="12" lengthAdjust="spacing" textLength="141" x="81.5" y="314.3911">Choisir objectif (FURPS)</text><text fill="#000000" font-family="sans-serif" font-size="12" lengthAdjust="spacing" textLength="71" x="64.5" y="328.3599">(considérer</text><text fill="#000000" font-family="sans-serif" font-size="12" font-style="italic" lengthAdjust="spacing" textLength="37" x="139.5" y="328.3599">Issues</text><text fill="#000000" font-family="sans-serif" font-size="12" lengthAdjust="spacing" textLength="59" x="180.5" y="328.3599">existants)</text><rect fill="#F1F1F1" height="61.9063" rx="12.5" ry="12.5" style="stroke:#181818;stroke-width:0.5;" width="212" x="46" y="480.8071"/><text fill="#000000" font-family="sans-serif" font-size="12" lengthAdjust="spacing" textLength="192" x="56" y="501.9458">Identifier problème(s) selon les</text><text fill="#000000" font-family="sans-serif" font-size="12" font-weight="bold" lengthAdjust="spacing" textLength="152" x="64.5" y="515.9146">critères d'évaluation</text><text fill="#000000" font-family="sans-serif" font-size="12" lengthAdjust="spacing" textLength="15" x="220.5" y="515.9146">du</text><text fill="#000000" font-family="sans-serif" font-size="12" lengthAdjust="spacing" textLength="191" x="56.5" y="529.8833">plan d'itération (le cas échéant)</text><polygon fill="#F1F1F1" points="59.5,235.9326,244.5,235.9326,256.5,248.7373,244.5,261.542,59.5,261.542,47.5,248.7373,59.5,235.9326" style="stroke:#181818;stroke-width:0.5;"/><text fill="#000000" font-family="sans-serif" font-size="11" lengthAdjust="spacing" textLength="21" x="156" y="271.7524">vrai</text><text fill="#000000" font-family="sans-serif" font-size="11" lengthAdjust="spacing" textLength="185" x="59.5" y="246.1431">Reste des objectifs à démontrer</text><text fill="#000000" font-family="sans-serif" font-size="11" lengthAdjust="spacing" textLength="149" x="77.5" y="258.9478">(selon le plan d'itération)?</text><text fill="#000000" font-family="sans-serif" font-size="11" lengthAdjust="spacing" textLength="25" x="22.5" y="246.1431">faux</text><rect fill="#F1F1F1" height="33.9688" rx="12.5" ry="12.5" style="stroke:#181818;stroke-width:0.5;" width="182" x="61" y="692.6509"/><text fill="#000000" font-family="sans-serif" font-size="12" lengthAdjust="spacing" textLength="162" x="71" y="713.7896">Annoncer la fin de la démo</text><line style="stroke:#000000;stroke-width:1.5;" x1="15" x2="15" y1="50.042" y2="904.4946"/><rect fill="#555555" height="6" rx="2.5" ry="2.5" style="stroke:#555555;stroke-width:1.0;" width="355" x="277.5" y="115.9951"/><rect fill="#F1F1F1" height="47.9375" rx="12.5" ry="12.5" style="stroke:#181818;stroke-width:0.5;" width="83" x="289.5" y="141.9951"/><text fill="#000000" font-family="sans-serif" font-size="12" lengthAdjust="spacing" textLength="37" x="312.5" y="163.1338">Ouvrir</text><text fill="#000000" font-family="sans-serif" font-size="12" lengthAdjust="spacing" textLength="63" x="299.5" y="177.1025">exigences</text><rect fill="#F1F1F1" height="47.9375" rx="12.5" ry="12.5" style="stroke:#181818;stroke-width:0.5;" width="107" x="400.5" y="141.9951"/><text fill="#000000" font-family="sans-serif" font-size="12" lengthAdjust="spacing" textLength="37" x="435.5" y="163.1338">Ouvrir</text><text fill="#000000" font-family="sans-serif" font-size="12" lengthAdjust="spacing" textLength="87" x="410.5" y="177.1025">Plan d'itération</text><rect fill="#F1F1F1" height="47.9375" rx="12.5" ry="12.5" style="stroke:#181818;stroke-width:0.5;" width="85" x="535.5" y="141.9951"/><text fill="#000000" font-family="sans-serif" font-size="12" lengthAdjust="spacing" textLength="40" x="558" y="163.1338">Lancer</text><text fill="#000000" font-family="sans-serif" font-size="12" lengthAdjust="spacing" textLength="65" x="545.5" y="177.1025">application</text><rect fill="#555555" height="6" rx="2.5" ry="2.5" style="stroke:#555555;stroke-width:1.0;" width="355" x="277.5" y="209.9326"/><rect fill="#F1F1F1" height="33.9688" rx="12.5" ry="12.5" style="stroke:#181818;stroke-width:0.5;" width="101" x="404.5" y="361.1899"/><text fill="#000000" font-family="sans-serif" font-size="12" lengthAdjust="spacing" textLength="81" x="414.5" y="382.3286">Lancer FURPS</text><rect fill="#F1F1F1" height="33.9688" rx="12.5" ry="12.5" style="stroke:#181818;stroke-width:0.5;" width="89" x="410.5" y="562.7134"/><text fill="#000000" font-family="sans-serif" font-size="12" lengthAdjust="spacing" textLength="34" x="420.5" y="583.8521">Créer</text><text fill="#000000" font-family="sans-serif" font-size="12" font-style="italic" lengthAdjust="spacing" textLength="31" x="458.5" y="583.8521">Issue</text><rect fill="#F1F1F1" height="47.9375" rx="12.5" ry="12.5" style="stroke:#181818;stroke-width:0.5;" width="211" x="349.5" y="746.6196"/><text fill="#000000" font-family="sans-serif" font-size="12" lengthAdjust="spacing" textLength="111" x="359.5" y="767.7583">Compléter section</text><text fill="#000000" font-family="sans-serif" font-size="12" font-weight="bold" lengthAdjust="spacing" textLength="76" x="474.5" y="767.7583">Évaluation</text><text fill="#000000" font-family="sans-serif" font-size="12" lengthAdjust="spacing" textLength="108" x="401" y="781.7271">du plan d'itération</text><line style="stroke:#000000;stroke-width:1.5;" x1="271.5" x2="271.5" y1="50.042" y2="904.4946"/><rect fill="#FAEBD7" height="854.4526" style="stroke:#FAEBD7;stroke-width:1.0;" width="124" x="636.5" y="50.042"/><rect fill="#F1F1F1" height="33.9688" rx="12.5" ry="12.5" style="stroke:#181818;stroke-width:0.5;" width="114" x="642.5" y="415.1587"/><text fill="#000000" font-family="sans-serif" font-size="12" lengthAdjust="spacing" textLength="94" x="652.5" y="436.2974">Exécuter FURPS</text><line style="stroke:#000000;stroke-width:1.5;" x1="636.5" x2="636.5" y1="50.042" y2="904.4946"/><rect fill="#F1F1F1" height="33.9688" style="stroke:#181818;stroke-width:0.5;" width="55" x="792.5" y="616.6821"/><text fill="#000000" font-family="sans-serif" font-size="12" font-style="italic" lengthAdjust="spacing" textLength="31" x="802.5" y="637.8208">Issue</text><text fill="#000000" font-family="sans-serif" font-size="12" lengthAdjust="spacing" textLength="4" x="833.5" y="637.8208"> </text><rect fill="#F1F1F1" height="47.9375" style="stroke:#181818;stroke-width:0.5;" width="107" x="766.5" y="814.5571"/><text fill="#000000" font-family="sans-serif" font-size="12" lengthAdjust="spacing" textLength="87" x="776.5" y="835.6958">Plan d'itération</text><text fill="#000000" font-family="sans-serif" font-size="12" lengthAdjust="spacing" textLength="63" x="788.5" y="849.6646">(actualisé)</text><ellipse cx="820" cy="893.4946" rx="11" ry="11" style="stroke:#222222;stroke-width:1.0;fill:none;"/><ellipse cx="820" cy="893.4946" fill="#222222" rx="6" ry="6" style="stroke:#111111;stroke-width:1.0;"/><line style="stroke:#000000;stroke-width:1.5;" x1="760.5" x2="760.5" y1="50.042" y2="904.4946"/><line style="stroke:#000000;stroke-width:1.5;" x1="877.5" x2="877.5" y1="50.042" y2="904.4946"/><polygon fill="#181818" points="895.5,458.8071,899.5,448.8071,903.5,458.8071,899.5,454.8071" style="stroke:#181818;stroke-width:1.0;"/><line style="stroke:#181818;stroke-width:1.0;" x1="152" x2="152" y1="261.542" y2="293.2524"/><polygon fill="#181818" points="148,283.2524,152,293.2524,156,283.2524,152,287.2524" style="stroke:#181818;stroke-width:1.0;"/><line style="stroke:#181818;stroke-width:1.0;" x1="47.5" x2="34" y1="248.7373" y2="248.7373"/><polygon fill="#181818" points="30,450.8071,34,460.8071,38,450.8071,34,454.8071" style="stroke:#181818;stroke-width:1.0;"/><line style="stroke:#181818;stroke-width:1.0;" x1="34" x2="34" y1="248.7373" y2="672.6509"/><line style="stroke:#181818;stroke-width:1.0;" x1="34" x2="152" y1="672.6509" y2="672.6509"/><line style="stroke:#181818;stroke-width:1.0;" x1="152" x2="152" y1="672.6509" y2="692.6509"/><polygon fill="#181818" points="148,682.6509,152,692.6509,156,682.6509,152,686.6509" style="stroke:#181818;stroke-width:1.0;"/><line style="stroke:#181818;stroke-width:1.0;" x1="331" x2="331" y1="121.9951" y2="141.9951"/><polygon fill="#181818" points="327,131.9951,331,141.9951,335,131.9951,331,135.9951" style="stroke:#181818;stroke-width:1.0;"/><line style="stroke:#181818;stroke-width:1.0;" x1="454" x2="454" y1="121.9951" y2="141.9951"/><polygon fill="#181818" points="450,131.9951,454,141.9951,458,131.9951,454,135.9951" style="stroke:#181818;stroke-width:1.0;"/><line style="stroke:#181818;stroke-width:1.0;" x1="578" x2="578" y1="121.9951" y2="141.9951"/><polygon fill="#181818" points="574,131.9951,578,141.9951,582,131.9951,578,135.9951" style="stroke:#181818;stroke-width:1.0;"/><line style="stroke:#181818;stroke-width:1.0;" x1="331" x2="331" y1="189.9326" y2="209.9326"/><polygon fill="#181818" points="327,199.9326,331,209.9326,335,199.9326,331,203.9326" style="stroke:#181818;stroke-width:1.0;"/><line style="stroke:#181818;stroke-width:1.0;" x1="454" x2="454" y1="189.9326" y2="209.9326"/><polygon fill="#181818" points="450,199.9326,454,209.9326,458,199.9326,454,203.9326" style="stroke:#181818;stroke-width:1.0;"/><line style="stroke:#181818;stroke-width:1.0;" x1="578" x2="578" y1="189.9326" y2="209.9326"/><polygon fill="#181818" points="574,199.9326,578,209.9326,582,199.9326,578,203.9326" style="stroke:#181818;stroke-width:1.0;"/><line style="stroke:#181818;stroke-width:1.0;" x1="820" x2="820" y1="862.4946" y2="882.4946"/><polygon fill="#181818" points="816,872.4946,820,882.4946,824,872.4946,820,876.4946" style="stroke:#181818;stroke-width:1.0;"/><line style="stroke:#181818;stroke-width:1.0;" x1="152" x2="152" y1="95.9951" y2="100.9951"/><line style="stroke:#181818;stroke-width:1.0;" x1="152" x2="455" y1="100.9951" y2="100.9951"/><line style="stroke:#181818;stroke-width:1.0;" x1="455" x2="455" y1="100.9951" y2="115.9951"/><polygon fill="#181818" points="451,105.9951,455,115.9951,459,105.9951,455,109.9951" style="stroke:#181818;stroke-width:1.0;"/><line style="stroke:#181818;stroke-width:1.0;" x1="152" x2="152" y1="341.1899" y2="346.1899"/><line style="stroke:#181818;stroke-width:1.0;" x1="152" x2="455" y1="346.1899" y2="346.1899"/><line style="stroke:#181818;stroke-width:1.0;" x1="455" x2="455" y1="346.1899" y2="361.1899"/><polygon fill="#181818" points="451,351.1899,455,361.1899,459,351.1899,455,355.1899" style="stroke:#181818;stroke-width:1.0;"/><line style="stroke:#181818;stroke-width:1.0;" x1="455" x2="455" y1="395.1587" y2="400.1587"/><line style="stroke:#181818;stroke-width:1.0;" x1="455" x2="699.5" y1="400.1587" y2="400.1587"/><line style="stroke:#181818;stroke-width:1.0;" x1="699.5" x2="699.5" y1="400.1587" y2="415.1587"/><polygon fill="#181818" points="695.5,405.1587,699.5,415.1587,703.5,405.1587,699.5,409.1587" style="stroke:#181818;stroke-width:1.0;"/><line style="stroke:#181818;stroke-width:1.0;" x1="699.5" x2="699.5" y1="449.1274" y2="465.8071"/><line style="stroke:#181818;stroke-width:1.0;" x1="699.5" x2="152" y1="465.8071" y2="465.8071"/><line style="stroke:#181818;stroke-width:1.0;" x1="152" x2="152" y1="465.8071" y2="480.8071"/><polygon fill="#181818" points="148,470.8071,152,480.8071,156,470.8071,152,474.8071" style="stroke:#181818;stroke-width:1.0;"/><line style="stroke:#181818;stroke-width:1.0;" x1="152" x2="152" y1="542.7134" y2="547.7134"/><line style="stroke:#181818;stroke-width:1.0;" x1="152" x2="455" y1="547.7134" y2="547.7134"/><line style="stroke:#181818;stroke-width:1.0;" x1="455" x2="455" y1="547.7134" y2="562.7134"/><polygon fill="#181818" points="451,552.7134,455,562.7134,459,552.7134,455,556.7134" style="stroke:#181818;stroke-width:1.0;"/><line style="stroke:#181818;stroke-width:1.0;" x1="455" x2="455" y1="596.6821" y2="601.6821"/><line style="stroke:#181818;stroke-width:1.0;" x1="455" x2="820" y1="601.6821" y2="601.6821"/><line style="stroke:#181818;stroke-width:1.0;" x1="820" x2="820" y1="601.6821" y2="616.6821"/><polygon fill="#181818" points="816,606.6821,820,616.6821,824,606.6821,820,610.6821" style="stroke:#181818;stroke-width:1.0;"/><line style="stroke:#181818;stroke-width:1.0;" x1="820" x2="820" y1="650.6509" y2="660.6509"/><line style="stroke:#181818;stroke-width:1.0;" x1="820" x2="899.5" y1="660.6509" y2="660.6509"/><line style="stroke:#181818;stroke-width:1.0;" x1="899.5" x2="899.5" y1="248.7373" y2="660.6509"/><line style="stroke:#181818;stroke-width:1.0;" x1="899.5" x2="256.5" y1="248.7373" y2="248.7373"/><polygon fill="#181818" points="266.5,244.7373,256.5,248.7373,266.5,252.7373,262.5,248.7373" style="stroke:#181818;stroke-width:1.0;"/><line style="stroke:#181818;stroke-width:1.0;" x1="455" x2="455" y1="215.9326" y2="220.9326"/><line style="stroke:#181818;stroke-width:1.0;" x1="455" x2="152" y1="220.9326" y2="220.9326"/><line style="stroke:#181818;stroke-width:1.0;" x1="152" x2="152" y1="220.9326" y2="235.9326"/><polygon fill="#181818" points="148,225.9326,152,235.9326,156,225.9326,152,229.9326" style="stroke:#181818;stroke-width:1.0;"/><line style="stroke:#181818;stroke-width:1.0;" x1="152" x2="152" y1="726.6196" y2="731.6196"/><line style="stroke:#181818;stroke-width:1.0;" x1="152" x2="455" y1="731.6196" y2="731.6196"/><line style="stroke:#181818;stroke-width:1.0;" x1="455" x2="455" y1="731.6196" y2="746.6196"/><polygon fill="#181818" points="451,736.6196,455,746.6196,459,736.6196,455,740.6196" style="stroke:#181818;stroke-width:1.0;"/><line style="stroke:#181818;stroke-width:1.0;" x1="455" x2="455" y1="794.5571" y2="799.5571"/><line style="stroke:#181818;stroke-width:1.0;" x1="455" x2="820" y1="799.5571" y2="799.5571"/><line style="stroke:#181818;stroke-width:1.0;" x1="820" x2="820" y1="799.5571" y2="814.5571"/><polygon fill="#181818" points="816,804.5571,820,814.5571,824,804.5571,820,808.5571" style="stroke:#181818;stroke-width:1.0;"/><text fill="#000000" font-family="sans-serif" font-size="18" lengthAdjust="spacing" textLength="240" x="23.25" y="66.75">Auxiliaire d'enseignement</text><text fill="#000000" font-family="sans-serif" font-size="18" lengthAdjust="spacing" textLength="63" x="422.5" y="66.75">Équipe</text><text fill="#000000" font-family="sans-serif" font-size="18" lengthAdjust="spacing" textLength="37" x="680" y="66.75">SGA</text><text fill="#000000" font-family="sans-serif" font-size="18" lengthAdjust="spacing" textLength="65" x="786.5" y="66.75">GitHub</text><!--MD5=[4a860250ad2aa6a63169f03d3a531196]
@startuml
title Évaluation de la démonstration
skinparam style strictuml
skinparam DefaultTextAlignment center
skinparam BackgroundColor #fefefe
|#AntiqueWhite|Auxiliaire d'enseignement|
start
|Équipe|
fork
:Ouvrir
exigences;
fork again
:Ouvrir
Plan d'itération;
fork again
:Lancer
application;
end fork
|Auxiliaire d'enseignement|
while (Reste des objectifs à démontrer\n(selon le plan d'itération)?) is (vrai)
:Choisir objectif (FURPS)
(considérer //Issues// existants);
|Équipe|
:Lancer FURPS;
|#AntiqueWhite|SGA|
:Exécuter FURPS;
|Auxiliaire d'enseignement|
:Identifier problème(s) selon les
**critères d'évaluation** du 
plan d'itération (le cas échéant);
|Équipe|
:Créer //Issue//;
|GitHub|
://Issue// ]
endwhile (faux)
|Auxiliaire d'enseignement|
:Annoncer la fin de la démo;
|Équipe|
:Compléter section **Évaluation**
du plan d'itération;
|GitHub|
:Plan d'itération
(actualisé)]
stop
@enduml

PlantUML version 1.2022.7beta2(Unknown compile time)
(GPL source distribution)
Java Runtime: Java(TM) SE Runtime Environment
JVM: Java HotSpot(TM) 64-Bit Server VM
Default Encoding: UTF-8
Language: en
Country: US
--></g></svg>